<?xml version="1.0" encoding="UTF-8" standalone="no"?>
<!-- Created with Inkscape (http://www.inkscape.org/) -->

<svg
   xmlns:dc="http://purl.org/dc/elements/1.1/"
   xmlns:cc="http://creativecommons.org/ns#"
   xmlns:rdf="http://www.w3.org/1999/02/22-rdf-syntax-ns#"
   xmlns:svg="http://www.w3.org/2000/svg"
   xmlns="http://www.w3.org/2000/svg"
   xmlns:xlink="http://www.w3.org/1999/xlink"
   xmlns:sodipodi="http://sodipodi.sourceforge.net/DTD/sodipodi-0.dtd"
   xmlns:inkscape="http://www.inkscape.org/namespaces/inkscape"
   width="327.86383"
   height="181.99001"
   id="svg2"
   version="1.1"
   inkscape:version="0.48.5 r10040"
   sodipodi:docname="Logo.svg">
  <defs
     id="defs4">
    <linearGradient
       id="linearGradient3000">
      <stop
         id="stop3001"
         offset="0.00000000"
         style="stop-color:#000000;stop-opacity:0.39215687;" />
      <stop
         id="stop3002"
         offset="1.0000000"
         style="stop-color:#000000;stop-opacity:0.00000000;" />
    </linearGradient>
    <linearGradient
       id="linearGradient2991">
      <stop
         id="stop2992"
         offset="0.00000000"
         style="stop-color:#fff700;stop-opacity:1.0000000;" />
      <stop
         id="stop2993"
         offset="1.0000000"
         style="stop-color:#ff8e00;stop-opacity:1.0000000;" />
    </linearGradient>
    <linearGradient
       id="linearGradient2979">
      <stop
         id="stop2980"
         offset="0.00000000"
         style="stop-color:#dee5f4;stop-opacity:1.0000000;" />
      <stop
         id="stop2981"
         offset="1.0000000"
         style="stop-color:#747a92;stop-opacity:1.0000000;" />
    </linearGradient>
    <linearGradient
       id="linearGradient2984">
      <stop
         id="stop2985"
         offset="0.00000000"
         style="stop-color:#ffffff;stop-opacity:1.0000000;" />
      <stop
         id="stop2986"
         offset="1.0000000"
         style="stop-color:#ffffff;stop-opacity:0.00000000;" />
    </linearGradient>
    <linearGradient
       gradientTransform="scale(1.306617,0.765335)"
       gradientUnits="userSpaceOnUse"
       id="linearGradient1871"
       x1="59.820393"
       x2="61.891071"
       xlink:href="#linearGradient2984"
       y1="85.529762"
       y2="199.20726" />
    <radialGradient
       cx="48.594395"
       cy="1101.0496"
       fx="48.594395"
       fy="1101.0496"
       gradientTransform="scale(2.157585,0.463481)"
       gradientUnits="userSpaceOnUse"
       id="radialGradient1908"
       r="31.845842"
       xlink:href="#linearGradient3000" />
    <linearGradient
       gradientTransform="scale(0.977355,1.02317)"
       gradientUnits="userSpaceOnUse"
       id="linearGradient1917"
       x1="216.47505"
       x2="171.147"
       xlink:href="#linearGradient2979"
       y1="198.10153"
       y2="73.230858" />
    <linearGradient
       gradientTransform="scale(0.816232,1.225143)"
       gradientUnits="userSpaceOnUse"
       id="linearGradient1918"
       x1="146.52391"
       x2="139.02554"
       xlink:href="#linearGradient3000"
       y1="200.60095"
       y2="76.863205" />
    <linearGradient
       gradientTransform="matrix(0.877312,0,0,1.35409,-9.949676,-15.93499)"
       gradientUnits="userSpaceOnUse"
       id="linearGradient1919"
       x1="146.52391"
       x2="139.02554"
       xlink:href="#linearGradient3000"
       y1="200.60095"
       y2="76.863205" />
    <linearGradient
       gradientTransform="scale(0.847717,1.179639)"
       gradientUnits="userSpaceOnUse"
       id="linearGradient1920"
       x1="233.42126"
       x2="231.59184"
       xlink:href="#linearGradient2984"
       y1="50.769344"
       y2="147.83969" />
    <linearGradient
       gradientTransform="scale(1.598277,0.625674)"
       gradientUnits="userSpaceOnUse"
       id="linearGradient1921"
       x1="122.32335"
       x2="123.6971"
       xlink:href="#linearGradient2979"
       y1="128.38135"
       y2="160.49329" />
    <linearGradient
       gradientTransform="scale(1.606578,0.622441)"
       gradientUnits="userSpaceOnUse"
       id="linearGradient1922"
       x1="121.56956"
       x2="122.9226"
       xlink:href="#linearGradient2979"
       y1="158.70644"
       y2="190.33418" />
    <linearGradient
       gradientTransform="scale(0.768115,1.301889)"
       gradientUnits="userSpaceOnUse"
       id="linearGradient1923"
       x1="271.4765"
       x2="256.74417"
       xlink:href="#linearGradient3000"
       y1="166.56679"
       y2="125.2625" />
    <radialGradient
       cx="75.537109"
       cy="1017.3969"
       fx="75.537109"
       fy="1017.3969"
       gradientTransform="scale(1.907187,0.524332)"
       gradientUnits="userSpaceOnUse"
       id="radialGradient1955"
       r="48.549095"
       xlink:href="#linearGradient3000" />
    <linearGradient
       gradientTransform="scale(1.905684,0.524746)"
       gradientUnits="userSpaceOnUse"
       id="linearGradient1956"
       x1="80.622375"
       x2="112.30373"
       xlink:href="#linearGradient2991"
       y1="1007.7199"
       y2="1007.7199" />
    <linearGradient
       gradientTransform="scale(1.905684,0.524746)"
       gradientUnits="userSpaceOnUse"
       id="linearGradient1957"
       x1="111.28992"
       x2="89.493149"
       xlink:href="#linearGradient2979"
       y1="991.43304"
       y2="1019.9909" />
    <linearGradient
       gradientTransform="scale(1.92902,0.518398)"
       gradientUnits="userSpaceOnUse"
       id="linearGradient1958"
       x1="97.777306"
       x2="91.326256"
       xlink:href="#linearGradient2991"
       y1="1036.9353"
       y2="1005.4645" />
    <linearGradient
       gradientTransform="scale(1.781362,0.561368)"
       gradientUnits="userSpaceOnUse"
       id="linearGradient1959"
       x1="95.44516"
       x2="65.910606"
       xlink:href="#linearGradient2979"
       y1="438.16623"
       y2="390.88043" />
    <linearGradient
       gradientTransform="scale(1.964736,0.508974)"
       gradientUnits="userSpaceOnUse"
       id="linearGradient1960"
       x1="52.588963"
       x2="87.982124"
       xlink:href="#linearGradient2984"
       y1="404.27759"
       y2="522.2951" />
    <linearGradient
       gradientTransform="scale(1.337132,0.747869)"
       gradientUnits="userSpaceOnUse"
       id="linearGradient1961"
       x1="177.20853"
       x2="180.98833"
       xlink:href="#linearGradient2979"
       y1="270.24692"
       y2="298.52386" />
    <linearGradient
       gradientTransform="scale(1.369306,0.730297)"
       gradientUnits="userSpaceOnUse"
       id="linearGradient1962"
       x1="129.28658"
       x2="129.54399"
       xlink:href="#linearGradient2984"
       y1="704.06665"
       y2="716.89569" />
    <radialGradient
       cx="48.594395"
       cy="1101.0496"
       fx="48.594395"
       fy="1101.0496"
       gradientTransform="scale(2.157585,0.463481)"
       gradientUnits="userSpaceOnUse"
       id="radialGradient1971"
       r="31.845842"
       xlink:href="#linearGradient3000" />
    <linearGradient
       gradientUnits="userSpaceOnUse"
       id="linearGradient1981"
       x1="85.997665"
       x2="79.453842"
       xlink:href="#linearGradient2979"
       y1="210.65846"
       y2="172.33038" />
    <linearGradient
       gradientTransform="matrix(1.015953,0,0,0.984297,-1.875,0.625)"
       gradientUnits="userSpaceOnUse"
       id="linearGradient1982"
       x1="79.259674"
       x2="69.298241"
       xlink:href="#linearGradient2979"
       y1="176.59102"
       y2="79.391563" />
    <linearGradient
       gradientTransform="scale(1.015805,0.98444)"
       gradientUnits="userSpaceOnUse"
       id="linearGradient1983"
       x1="131.51102"
       x2="99.187386"
       xlink:href="#linearGradient2979"
       y1="65.556458"
       y2="100.41222" />
    <linearGradient
       gradientTransform="scale(1.015953,0.984297)"
       gradientUnits="userSpaceOnUse"
       id="linearGradient1984"
       x1="79.259674"
       x2="69.298241"
       xlink:href="#linearGradient2979"
       y1="176.59102"
       y2="79.391563" />
    <linearGradient
       gradientTransform="scale(1.046727,0.955359)"
       gradientUnits="userSpaceOnUse"
       id="linearGradient1985"
       x1="52.874111"
       x2="48.997128"
       xlink:href="#linearGradient2991"
       y1="167.85587"
       y2="77.001305" />
    <linearGradient
       gradientTransform="scale(2.284372,0.437757)"
       gradientUnits="userSpaceOnUse"
       id="linearGradient1986"
       x1="44.634335"
       x2="39.178116"
       xlink:href="#linearGradient2984"
       y1="462.63409"
       y2="437.71384" />
    <linearGradient
       gradientTransform="matrix(1.350628,0,0,0.811804,-29.70751,-1.423843)"
       gradientUnits="userSpaceOnUse"
       id="linearGradient1992"
       x1="-71.758919"
       x2="262.79605"
       xlink:href="#linearGradient2979"
       y1="505.53708"
       y2="-90.461502" />
    <linearGradient
       gradientTransform="scale(1.289859,0.775278)"
       gradientUnits="userSpaceOnUse"
       id="linearGradient1994"
       x1="203.06593"
       x2="-95.652382"
       xlink:href="#linearGradient2984"
       y1="-290.19931"
       y2="637.12531" />
  </defs>
  <sodipodi:namedview
     id="base"
     pagecolor="#ffffff"
     bordercolor="#666666"
     borderopacity="1.0"
     inkscape:pageopacity="0.0"
     inkscape:pageshadow="2"
     inkscape:zoom="1.4"
     inkscape:cx="293.46311"
     inkscape:cy="67.185903"
     inkscape:document-units="px"
     inkscape:current-layer="layer1"
     showgrid="false"
     inkscape:window-width="1680"
     inkscape:window-height="987"
     inkscape:window-x="-8"
     inkscape:window-y="-8"
     inkscape:window-maximized="1"
     fit-margin-top="0"
     fit-margin-left="0"
     fit-margin-right="0"
     fit-margin-bottom="0" />
  <metadata
     id="metadata7">
    <rdf:RDF>
      <cc:Work
         rdf:about="">
        <dc:format>image/svg+xml</dc:format>
        <dc:type
           rdf:resource="http://purl.org/dc/dcmitype/StillImage" />
        <dc:title />
      </cc:Work>
    </rdf:RDF>
  </metadata>
  <g
     inkscape:label="Layer 1"
     inkscape:groupmode="layer"
     id="layer1"
     transform="translate(-28.926139,-35.348458)">
    <g
       id="g3145"
       transform="matrix(1.1086932,0,0,1.0241171,-3.1440739,-0.85250246)">
      <g
         transform="matrix(0.07434288,0,0,0.08091101,242.37535,90.056043)"
         inkscape:label="Layer 1"
         id="layer1-9">
        <g
           id="g3099"
           transform="matrix(8.1010188,0,0,8.00668,-2882.1543,-617.61001)"
           inkscape:export-xdpi="90"
           inkscape:export-ydpi="90">
          <path
             transform="matrix(0.940119,-0.124165,0.376587,0.821327,-213.4198,-213.7047)"
             style="fill:url(#radialGradient1971);fill-opacity:1;fill-rule:evenodd;stroke:none"
             id="path2998"
             d="m 173.55663,510.3158 c 0.008,8.1529 -30.75695,14.76303 -68.7101,14.76303 -37.953155,0 -68.718039,-6.61013 -68.710109,-14.76303 -0.0079,-8.1529 30.756954,-14.76303 68.710109,-14.76303 37.95315,0 68.71803,6.61013 68.7101,14.76303 l 0,0 z"
             inkscape:connector-curvature="0" />
          <path
             transform="matrix(1.711735,0.102817,-0.102817,1.711735,-8.017553,-689.7307)"
             style="fill:url(#radialGradient1908);fill-opacity:1;fill-rule:evenodd;stroke:none"
             id="path3009"
             d="m 173.55663,510.3158 c 0.008,8.1529 -30.75695,14.76303 -68.7101,14.76303 -37.953155,0 -68.718039,-6.61013 -68.710109,-14.76303 -0.0079,-8.1529 30.756954,-14.76303 68.710109,-14.76303 37.95315,0 68.71803,6.61013 68.7101,14.76303 l 0,0 z"
             inkscape:connector-curvature="0" />
          <g
             transform="translate(0,-75)"
             id="g1942">
            <path
               style="fill:none;stroke:#000000;stroke-width:1.875;stroke-linecap:butt;stroke-linejoin:round;stroke-miterlimit:4;stroke-opacity:0.19607843"
               id="path1941"
               d="m 223.80016,284.71299 c -11.51269,-0.95939 -19.18781,3.59769 -29.74109,3.35786 -10.55329,-0.23985 -20.78677,-2.71827 -33.57862,-2.87817 -12.79185,-0.15989 -19.34768,7.75505 -41.25375,3.35786 -5.11914,-1.02756 14.95049,-7.27537 10.55327,-11.51267 -4.39721,-4.23731 -27.5025,-3.91751 -40.77407,-12.95177 -5.572342,-3.79323 11.51269,-7.83503 12.47208,-15.82993"
               inkscape:connector-curvature="0" />
            <path
               style="fill:none;stroke:#000000;stroke-width:1.875;stroke-linecap:butt;stroke-linejoin:round;stroke-miterlimit:4;stroke-opacity:0.19607843"
               id="path1940"
               d="m 81.81048,305.81956 c -7.675106,-3.03806 -30.134398,-8.81347 -32.139554,-11.99237 -3.277913,-5.19669 30.69974,-1.22273 11.992372,-10.55329 -8.105029,-4.0425 -39.334974,-2.15864 -34.058335,-5.75635 5.276656,-3.59771 51.571914,-7.16133 63.004637,-12.43797 11.43273,-5.27663 5.649924,-14.62362 8.983687,-22.61383"
               inkscape:connector-curvature="0" />
            <path
               transform="matrix(1.606958,-0.180571,0.108339,1.105737,-118.8948,-254.5933)"
               style="fill:url(#radialGradient1955);fill-opacity:1;fill-rule:evenodd;stroke:none"
               id="path3228"
               d="m 236.65561,533.45416 c 0,14.05889 -41.45494,25.45586 -92.59221,25.45586 -51.137265,0 -92.592209,-11.39697 -92.592209,-25.45586 0,-14.05889 41.454944,-25.45586 92.592209,-25.45586 51.13727,0 92.59221,11.39697 92.59221,25.45586 z"
               inkscape:connector-curvature="0" />
            <path
               transform="matrix(1.71482,0,0,1.71482,-61.76929,-610.3221)"
               style="fill:url(#linearGradient1956);fill-opacity:1;fill-rule:evenodd;stroke:url(#linearGradient1957);stroke-width:1.09340906;stroke-linecap:round;stroke-linejoin:bevel;stroke-miterlimit:4;stroke-opacity:1"
               id="path3141"
               d="m 187.375,521.03125 -33.1875,4.34375 26.1875,11.1875 33.09375,-7.71875 -26.09375,-7.8125 z"
               inkscape:connector-curvature="0" />
            <path
               transform="matrix(1.71482,0,0,1.71482,-61.76929,-611.731)"
               style="fill:#ffffff;fill-opacity:1;fill-rule:evenodd;stroke:#000000;stroke-width:0.54670453;stroke-linecap:round;stroke-linejoin:bevel;stroke-miterlimit:4;stroke-opacity:1"
               id="path3140"
               d="m 187.375,521.03125 -33.1875,4.34375 26.1875,11.1875 33.09375,-7.71875 -26.09375,-7.8125 z"
               inkscape:connector-curvature="0" />
            <path
               transform="translate(0,75)"
               style="fill:none;stroke:#484c5f;stroke-width:1.875;stroke-linecap:butt;stroke-linejoin:round;stroke-miterlimit:4;stroke-opacity:1"
               id="path3230"
               d="m 225.56792,208.82911 c -11.51269,-0.95939 -19.18781,3.59769 -29.74109,3.35786 -10.55329,-0.23985 -20.78677,-2.71827 -33.57862,-2.87817 -12.79185,-0.15989 -19.34768,7.75505 -41.25375,3.35786 -5.11914,-1.02756 14.95049,-7.27537 10.55327,-11.51267 -4.39721,-4.23731 -27.5025,-3.91751 -40.774064,-12.95177 -5.572342,-3.79323 11.512684,-7.83503 12.472074,-15.82993"
               inkscape:connector-curvature="0" />
            <path
               transform="translate(0,75)"
               style="fill:none;stroke:#484c5f;stroke-width:1.875;stroke-linecap:butt;stroke-linejoin:round;stroke-miterlimit:4;stroke-opacity:1"
               id="path3231"
               d="m 83.578246,229.93568 c -7.675106,-3.03806 -30.134398,-8.81347 -32.139554,-11.99237 -3.277913,-5.19669 30.69974,-1.22273 11.992372,-10.55329 -8.105029,-4.0425 -39.334974,-2.15864 -34.058335,-5.75635 5.276656,-3.59771 51.571914,-7.16133 63.004637,-12.43797 11.432724,-5.27663 5.649924,-14.62362 8.983684,-22.61383"
               inkscape:connector-curvature="0" />
            <path
               transform="translate(0,75)"
               style="fill:url(#linearGradient1959);fill-opacity:1;fill-rule:evenodd;stroke:#000000;stroke-width:0.9375;stroke-linecap:butt;stroke-linejoin:miter;stroke-miterlimit:4;stroke-opacity:1"
               id="path3010"
               d="m 64.332013,228.80006 1.745567,16.94802 38.06993,19.53072 125.63079,-22.32084 0.95174,-7.99115 -51.67286,-21.48368 -114.725167,15.31693 z"
               inkscape:connector-curvature="0" />
            <path
               transform="translate(0,75)"
               style="fill:#000000;fill-opacity:0.19607843;fill-rule:evenodd;stroke:none"
               id="path3013"
               d="m 66.307606,229.92236 1.436985,14.45384 36.581949,18.89262 123.98789,-21.87248 0.51127,-5.31155 -124.37135,19.97716 -38.146744,-26.13959 z"
               inkscape:connector-curvature="0" />
            <path
               transform="translate(0,75)"
               style="fill:url(#linearGradient1960);fill-opacity:1;fill-rule:evenodd;stroke:none"
               id="path3014"
               d="m 70.98008,230.35875 31.42014,20.07397 c 1.89101,-23.85603 116.37082,-8.00049 102.1154,-23.56509 L 179.20496,215.52147 70.98008,230.35875 z"
               inkscape:connector-curvature="0" />
            <path
               transform="translate(0,75)"
               style="fill:url(#linearGradient1961);fill-opacity:1;fill-rule:evenodd;stroke:#000000;stroke-width:0.9375;stroke-linecap:butt;stroke-linejoin:miter;stroke-miterlimit:4;stroke-opacity:1"
               id="path3135"
               d="m 260.74545,220.12719 c -6.45774,0.5736 -11.75187,6.50196 -25.04937,0.50971 -12.96121,-5.84069 -11.90811,-4.65879 -11.23209,-7.94799 0.59243,-2.88249 4.59769,-11.2772 19.47029,-10.76511 14.79403,0.50937 23.66829,17.5943 16.81117,18.20339 z"
               inkscape:connector-curvature="0" />
            <path
               transform="matrix(1.71482,0,0,1.71482,-61.76929,-606.9641)"
               style="fill:url(#linearGradient1962);fill-opacity:1;fill-rule:evenodd;stroke:none"
               id="path3233"
               d="m 183.22627,519.18774 c 0,1.85392 -2.81794,3.35682 -6.29403,3.35682 -3.4761,0 -6.29404,-1.5029 -6.29404,-3.35682 0,-1.85392 2.81794,-3.35682 6.29404,-3.35682 3.47609,0 6.29403,1.5029 6.29403,3.35682 z"
               inkscape:connector-curvature="0" />
          </g>
          <g
             transform="translate(0,75)"
             id="g1909">
            <path
               transform="translate(0,-75)"
               style="fill:url(#linearGradient1917);fill-opacity:1;fill-rule:evenodd;stroke:#000000;stroke-width:0.9375;stroke-linecap:butt;stroke-linejoin:round;stroke-miterlimit:4;stroke-opacity:1"
               id="path352"
               d="m 168.65587,72.330023 56.54429,3.87882 L 221.7842,198.54725 169.31652,206.3112 98.77599,189.11266 97.260299,80.427198 168.65587,72.330023 z"
               inkscape:connector-curvature="0" />
            <path
               transform="translate(0,-75)"
               style="fill:url(#linearGradient1918);fill-opacity:1;fill-rule:evenodd;stroke:none"
               id="path353"
               d="m 102.89328,117.91922 0.89443,66.3121 59.24054,12.30015 -0.4652,-86.06109 c -19.26492,-16.892053 -39.77985,23.71589 -59.66977,7.44884 z"
               inkscape:connector-curvature="0" />
            <path
               transform="translate(0,-75)"
               style="fill:url(#linearGradient1919);fill-opacity:1;fill-rule:evenodd;stroke:none"
               id="path1853"
               d="m 100.64328,114.39526 0.96136,73.29147 63.67361,13.59474 -0.50001,-95.11904 c -20.70655,-18.66995 -42.75664,26.21199 -64.13496,8.23283 z"
               inkscape:connector-curvature="0" />
            <path
               transform="translate(0,-75)"
               style="fill:url(#linearGradient1920);fill-opacity:1;fill-rule:evenodd;stroke:none"
               id="path2987"
               d="m 171.34995,74.897795 -0.87277,73.182045 c 29.33121,-32.58838 28.29052,14.33468 50.11006,-4.3824 l 2.61831,-65.671505 -51.8556,-3.12814 z"
               inkscape:connector-curvature="0" />
            <path
               transform="translate(0,-75)"
               style="fill:url(#linearGradient1921);fill-opacity:1;fill-rule:evenodd;stroke:#000000;stroke-width:1.25;stroke-linecap:butt;stroke-linejoin:bevel;stroke-miterlimit:4;stroke-opacity:0.39215686"
               id="path3005"
               d="m 177.48285,82.517255 -0.43638,13.582731 40.95474,1.696523 0.0191,-12.906594 -40.53744,-2.37266 z"
               inkscape:connector-curvature="0" />
            <path
               transform="translate(0,-75)"
               style="fill:url(#linearGradient1922);fill-opacity:1;fill-rule:evenodd;stroke:#000000;stroke-width:1.25;stroke-linecap:butt;stroke-linejoin:bevel;stroke-miterlimit:4;stroke-opacity:0.39215686"
               id="path3008"
               d="m 177.47737,100.94619 -0.43639,14.5909 40.55316,0.35501 -0.005,-13.56787 -40.1118,-1.37804 z"
               inkscape:connector-curvature="0" />
            <path
               transform="matrix(1.1995,0,0,1,-43.46294,-75)"
               style="fill:url(#linearGradient1923);fill-opacity:1;stroke:none"
               id="path1823"
               d="m 217.5,164.375 c 0,17.2589 -8.25475,31.25 -18.4375,31.25 -10.18275,0 -18.4375,-13.9911 -18.4375,-31.25 0,-17.2589 8.25475,-31.25 18.4375,-31.25 10.18275,0 18.4375,13.9911 18.4375,31.25 z"
               inkscape:connector-curvature="0" />
          </g>
          <g
             transform="translate(150,0)"
             id="g1972">
            <path
               transform="translate(-150,0)"
               style="fill:url(#linearGradient1981);fill-opacity:1;fill-rule:evenodd;stroke:#000000;stroke-width:0.9375;stroke-linecap:butt;stroke-linejoin:round;stroke-miterlimit:4;stroke-opacity:1"
               id="path354"
               d="m 68.78151,152.51618 -11.29487,39.91256 0,6.07614 24.304541,12.15228 36.456799,-3.78926 0,-6.07614 -32.475964,-8.97545 8.171427,-41.92051 -25.161933,2.62038 z"
               inkscape:connector-curvature="0" />
            <path
               transform="translate(-150,0)"
               style="fill:#000000;fill-opacity:0.31097556;fill-rule:evenodd;stroke:none"
               id="path355"
               d="m 68.77909,153.94752 5.2057,1.53108 -11.33006,38.88969 18.066866,8.26788 0.306215,6.43056 -22.966351,-11.02382 0.30622,-5.81815 10.41141,-38.27724 z"
               inkscape:connector-curvature="0" />
            <path
               transform="translate(-150,0)"
               style="fill:url(#linearGradient1982);fill-opacity:1;fill-rule:evenodd;stroke:url(#linearGradient1983);stroke-width:2;stroke-linecap:butt;stroke-linejoin:round;stroke-miterlimit:4;stroke-opacity:1"
               id="path1828"
               d="m 24.2993,63.8626 109.37042,2.449741 6.07613,97.218149 L 30.37544,175.68275 24.2993,63.8626 z"
               inkscape:connector-curvature="0" />
            <path
               transform="translate(-150,0)"
               style="fill:url(#linearGradient1984);fill-opacity:1;fill-rule:evenodd;stroke:#000000;stroke-width:0.9375;stroke-linecap:butt;stroke-linejoin:round;stroke-miterlimit:4;stroke-opacity:1"
               id="path356"
               d="m 26.1743,63.2376 109.37042,2.449741 6.07613,97.218149 L 32.25044,175.05775 26.1743,63.2376 z"
               inkscape:connector-curvature="0" />
            <path
               transform="translate(-150,0)"
               style="fill:#ffffff;fill-opacity:1;fill-rule:evenodd;stroke:#000000;stroke-width:1.875;stroke-linecap:round;stroke-linejoin:round;stroke-miterlimit:4;stroke-opacity:0.19607843"
               id="path357"
               d="m 35.99156,72.467003 5.24711,87.636147 90.94974,-7.49521 -3.49806,-79.564398 -92.69879,-0.576539 z"
               inkscape:connector-curvature="0" />
            <path
               transform="translate(-150,0)"
               style="fill:url(#linearGradient1986);fill-opacity:1;fill-rule:evenodd;stroke:none"
               id="path361"
               d="m 64.18582,194.36829 19.904163,-1.22488 28.034427,7.48685 -29.577302,1.69968 -18.361288,-7.96165 z"
               inkscape:connector-curvature="0" />
            <rect
               y="33.75"
               x="-85.625"
               width="6.875"
               style="fill:none;stroke:none"
               ry="1.875"
               rx="6.165308"
               id="rect1924"
               height="1.875" />
          </g>
        </g>
        <path
           d="m -1993.9038,316.24041 -109.3163,77.80187 -4.3343,-40.53083 63.6389,-45.43456 -71.7648,-30.55401 -4.3454,-40.63524 123.2956,52.92352 2.8263,26.42925 z m -412.4906,17.38703 109.3171,-77.80297 4.3454,40.63523 -63.6818,45.04192 71.8068,30.94776 4.3344,40.53083 -123.2957,-52.92351 -2.8262,-26.42926 z m 217.129,78.01757 c -11.4408,1.22366 -21.7101,-7.06217 -22.9338,-18.50689 -1.2231,-11.43776 7.062,-21.70511 18.5028,-22.92876 11.4427,-1.22389 21.7107,7.05908 22.9339,18.49683 1.2238,11.44472 -7.0611,21.71505 -18.5029,22.93882 z m 10.139,-59.25421 c 0,0 -31.063,3.3224 -34.1542,3.65303 -6.0512,-56.58625 34.1773,-71.29092 31.0405,-100.62461 -3.1836,-29.7712 -50.7073,-33.92057 -50.7581,10.62536 l -33.2185,3.55295 c -6.3607,-88.22068 110.9109,-87.76395 118.0805,-20.72034 4.9977,46.73543 -36.1676,55.09777 -30.9902,103.51361 z"
           id="php-code-icon"
           inkscape:connector-curvature="0" />
      </g>
      <text
         transform="matrix(0.8435943,0.24116299,-0.31327561,1.0958461,0,0)"
         sodipodi:linespacing="125%"
         id="text3139"
         y="27.328783"
         x="269.60986"
         style="font-size:24.57442093px;font-style:normal;font-weight:normal;text-align:center;line-height:125%;letter-spacing:0px;word-spacing:0px;text-anchor:middle;fill:#000000;fill-opacity:1;stroke:none;font-family:Shadows Into Light;-inkscape-font-specification:'Shadows Into Light,'"
         xml:space="preserve"><tspan
           style="font-size:40px;font-style:normal;font-weight:normal;text-align:center;text-anchor:middle;-inkscape-font-specification:'Shadows Into Light,'"
           y="27.328783"
           x="269.60986"
           id="tspan3141"
           sodipodi:role="line">Programming</tspan><tspan
           style="font-size:40px;font-style:normal;font-weight:normal;text-align:center;text-anchor:middle;-inkscape-font-specification:'Shadows Into Light,'"
           id="tspan3143"
           y="77.328781"
           x="269.60986"
           sodipodi:role="line">Doubts</tspan></text>
    </g>
  </g>
</svg>
